<mxfile host="app.diagrams.net" modified="2023-10-17T06:37:30.568Z" agent="Mozilla/5.0 (Windows NT 10.0; Win64; x64) AppleWebKit/537.36 (KHTML, like Gecko) Chrome/118.0.0.0 Safari/537.36" version="21.7.2" etag="MLXcfz50xZP3aP2UD6Co" type="github">
  <diagram name="Page-1" id="XI_YfOdhx-SJYV5ovgZb">
    <mxGraphModel>
      <root>
        <mxCell id="0" />
        <mxCell id="1" parent="0" />
      </root>
    </mxGraphModel>
  </diagram>
</mxfile>
